# xmcd
#
# Track frame offsets: 
#        150
#        14335
#        39647
#
# Disc length: 934 seconds
#
# Revision: 3
# Processed by: cddbd v1.5.2PL0 Copyright (c) Steve Scherf et al.
# Submitted via: ExactAudioCopy v0.95b3
#
DISCID=1c03a403
DTITLE=James Brown - Sex Machine Remix
DYEAR=2006
DGENRE=Soul
TTITLE0=Sex Machine [Readymade Jazz Defector Remix short version]
TTITLE1=Sex Machine [Readymade Jazz Defector Remix extended version]
TTITLE2=Soul Power [Co-Fusion Mix]
EXTD=Genre: Austropop
EXTT0=
EXTT1=
EXTT2=
PLAYORDER=
